<?xml version="1.0" encoding="utf-8"?><!DOCTYPE svg PUBLIC "-//W3C//DTD SVG 1.1//EN" "http://www.w3.org/Graphics/SVG/1.1/DTD/svg11.dtd"><svg version="1.1" xmlns="http://www.w3.org/2000/svg" width="255.5" height="128" viewBox="0 0 255.5 128"><g transform="scale(0.125,0.125)"><g><rect /></g><g transform="translate(0,0)"><g transform="scale(1,-1) translate(0,-820)"><path stroke="none" fill="#782d8b" d="M624 590H20V566H88V-6H20V-30H636V206H608Q580 102 528 50Q476 -2 396 -6H348V274V274Q400 278 432 246Q460 214 468 146H492V422H468Q460 358 432 330Q400 298 348 298V298V566H384Q468 570 520 526Q572 478 596 374H624V590V590V590V591V590Z" /></g></g><g transform="translate(670,0)"><g transform="scale(1,-1) translate(0,-820)"><path stroke="none" fill="#782d8b" d="M556 -30V-6H472V566Q532 566 576 514Q620 462 648 374H664V590H20V374H40Q60 462 108 514Q152 566 212 566V-6H128V-30H556V-30V-30V-29V-30Z" /></g></g><g transform="translate(1368,0)"><g transform="scale(1,-1) translate(0,-820)"><path stroke="none" fill="#782d8b" d="M20 -30H644V206H616Q588 102 536 50Q484 -2 404 -6H352V566H436V590H20V566H92V-6H20V-30V-30V-30V-29V-30Z" /></g></g></g></svg>